<svg xmlns="http://www.w3.org/2000/svg" viewBox="0 0 1200 630" role="img" aria-label="FlowGuru social preview">
  <defs>
    <linearGradient id="bg" x1="0" y1="0" x2="1200" y2="630" gradientUnits="userSpaceOnUse">
      <stop stop-color="#182114"/>
      <stop offset="0.55" stop-color="#09100D"/>
      <stop offset="1" stop-color="#050605"/>
    </linearGradient>
    <linearGradient id="trail" x1="80" y1="126" x2="1120" y2="520" gradientUnits="userSpaceOnUse">
      <stop stop-color="#D9FF77"/>
      <stop offset="0.5" stop-color="#54F2D0"/>
      <stop offset="0.78" stop-color="#FFD166"/>
      <stop offset="1" stop-color="#FF7868"/>
    </linearGradient>
    <filter id="glow" x="-20%" y="-50%" width="140%" height="200%">
      <feGaussianBlur stdDeviation="14" result="blur"/>
      <feMerge>
        <feMergeNode in="blur"/>
        <feMergeNode in="SourceGraphic"/>
      </feMerge>
    </filter>
  </defs>
  <rect width="1200" height="630" fill="url(#bg)"/>
  <g opacity="0.2" stroke="#F8F7ED" stroke-width="1">
    <path d="M0 105H1200"/>
    <path d="M0 210H1200"/>
    <path d="M0 315H1200"/>
    <path d="M0 420H1200"/>
    <path d="M0 525H1200"/>
    <path d="M105 0v630"/>
    <path d="M210 0v630"/>
    <path d="M315 0v630"/>
    <path d="M420 0v630"/>
    <path d="M525 0v630"/>
    <path d="M630 0v630"/>
    <path d="M735 0v630"/>
    <path d="M840 0v630"/>
    <path d="M945 0v630"/>
    <path d="M1050 0v630"/>
  </g>
  <path d="M72 438C234 178 490 86 798 176c126 37 232 104 330 208" fill="none" stroke="url(#trail)" stroke-width="36" stroke-linecap="round" opacity="0.84" filter="url(#glow)"/>
  <path d="M102 342c206-168 455-202 746-102 116 40 196 91 268 164" fill="none" stroke="#FFD166" stroke-width="12" stroke-linecap="round" opacity="0.72"/>
  <g transform="translate(84 96)">
    <text y="72" font-family="Avenir Next, Arial, sans-serif" font-size="92" font-weight="950" fill="#F8F7ED">FlowGuru</text>
    <foreignObject x="4" y="108" width="620" height="164">
      <div xmlns="http://www.w3.org/1999/xhtml" style="font: 900 48px/1.02 Avenir Next, Arial, sans-serif; color: #D9FF77;">Practice has a home base before the feed arrives.</div>
    </foreignObject>
    <text x="4" y="330" font-family="Avenir Next, Arial, sans-serif" font-size="28" font-weight="700" fill="#C8CBBD">Profiles. Discipline maps. Practice prompts. No third-party trackers.</text>
  </g>
  <g transform="translate(800 104)">
    <rect width="296" height="422" rx="42" fill="#050705" stroke="#54F2D0" stroke-opacity="0.48" stroke-width="3"/>
    <rect x="22" y="22" width="252" height="378" rx="30" fill="#141B14"/>
    <text x="48" y="86" font-family="Avenir Next, Arial, sans-serif" font-size="18" font-weight="900" fill="#54F2D0" letter-spacing="2">PROFILE</text>
    <text x="48" y="138" font-family="Avenir Next, Arial, sans-serif" font-size="38" font-weight="900" fill="#F8F7ED">Riley</text>
    <text x="48" y="174" font-family="Avenir Next, Arial, sans-serif" font-size="22" font-weight="700" fill="#C8CBBD">Poi + LED</text>
    <rect x="48" y="214" width="198" height="118" rx="20" fill="#0B100D" stroke="#F8F7ED" stroke-opacity="0.12"/>
    <text x="72" y="260" font-family="Avenir Next, Arial, sans-serif" font-size="24" font-weight="900" fill="#FFD166">Tonight</text>
    <text x="72" y="296" font-family="Avenir Next, Arial, sans-serif" font-size="20" font-weight="700" fill="#C8CBBD">Slow transitions</text>
    <rect x="48" y="354" width="198" height="10" rx="5" fill="#F8F7ED" opacity="0.14"/>
    <rect x="48" y="354" width="142" height="10" rx="5" fill="url(#trail)"/>
  </g>
</svg>
